<?xml version="1.0" encoding="utf-8"?>
<!-- Generator: Adobe Illustrator 19.2.1, SVG Export Plug-In . SVG Version: 6.00 Build 0)  -->
<svg version="1.1" id="Layer_1" xmlns="http://www.w3.org/2000/svg" xmlns:xlink="http://www.w3.org/1999/xlink" x="0px" y="0px"
	 viewBox="0 0 512 512" style="enable-background:new 0 0 512 512;" xml:space="preserve">
<style type="text/css">
	.st0{clip-path:url(#SVGID_2_);fill:#3098BB;}
</style>
<g>
	<defs>
		<rect id="SVGID_1_" x="99.9" y="100" width="311.2" height="311.1"/>
	</defs>
	<clipPath id="SVGID_2_">
		<use xlink:href="#SVGID_1_"  style="overflow:visible;"/>
	</clipPath>
	<path class="st0" d="M284.1,132.8l52.6,48.1c3.4,3.1,8.9,3.2,12.4,0.2l21.3-18.5c3.7-3.2,3.7-8.5,0.2-11.8l-52.8-48.4
		c-3.5-3.2-9-3.2-12.5-0.1l-21,18.8C280.6,124.3,280.6,129.6,284.1,132.8"/>
	<path class="st0" d="M261,199.2l-106.4,97.7c-2.1,2-5.6,2-7.7,0c-2.1-1.9-2.2-5.1-0.1-7.1l105.1-99c2.2-2,5.7-2,7.9,0l1.3,1.2
		C263.2,194.1,263.2,197.3,261,199.2 M320.3,194.1l-52.2-47.8c-3.6-3.3-9.4-3.3-12.9,0L114.6,275.1c-1.3,1.2-2.2,2.7-2.5,4.4l-12,59
		c-1.2,5.8,4.2,10.8,10.5,9.9l65.2-9.7c1.9-0.3,3.7-1.1,5.1-2.4L320.3,206C323.9,202.7,323.8,197.4,320.3,194.1"/>
	<path class="st0" d="M407.2,316.6l-13.7-4.8c-2.5-0.9-4.1-3.2-3.8-5.6c0.3-2.8,0.4-5.7,0.4-8.6c0-5.3-0.5-10.6-1.4-15.7
		c-0.4-2.4,1-4.7,3.4-5.8l13.1-5.8c3-1.3,4.2-4.6,2.8-7.3l-15-29.2c-1.4-2.8-5-3.9-8-2.6l-13,5.7c-2.4,1-5.3,0.5-7-1.3
		c-5.6-5.9-12-11.1-19-15.6c-2.6-1.7-6.1-1.4-8.4,0.7l-32.2,29.7c-3.3,3.1-2.1,8.2,2.2,9.9c17.9,7.1,29.9,24.4,27.2,44
		c-2.6,18.9-18.7,33.8-39.2,36.1c-21.2,2.5-40.1-8.6-47.7-25.1c-1.9-4-7.4-5.1-10.7-2.1l-32.6,30.1c-2.2,2.1-2.5,5.3-0.7,7.7
		c5.2,7,11.4,13.3,18.5,18.7c1.9,1.5,2.6,4,1.7,6.2l-4.9,11.8c-1.2,2.8,0.4,6,3.5,7.1l32.7,11.5c3.1,1.1,6.5-0.3,7.7-3.2l3.7-8.9
		c1-2.4,3.6-3.9,6.4-3.5c4.8,0.7,9.8,1,14.8,1c4.3,0,8.4-0.2,12.5-0.7c2.5-0.3,4.9,1,6,3.1l7.1,13.8c1.4,2.8,5,3.9,8,2.6l31.6-13.9
		c3-1.3,4.3-4.6,2.8-7.3l-6-11.6c-1.2-2.3-0.6-5,1.6-6.6c6.8-5,12.9-10.8,18.1-17.2c1.6-2,4.4-2.6,6.9-1.8l13.8,4.9
		c3.1,1.1,6.5-0.4,7.7-3.2l12.5-30.2C411.8,320.9,410.3,317.7,407.2,316.6"/>
</g>
</svg>
