<?xml version="1.0" encoding="utf-8"?>
<!-- Generator: Adobe Illustrator 19.2.1, SVG Export Plug-In . SVG Version: 6.00 Build 0)  -->
<svg version="1.1" id="Layer_1" xmlns="http://www.w3.org/2000/svg" xmlns:xlink="http://www.w3.org/1999/xlink" x="0px" y="0px"
	 viewBox="0 0 512 512" style="enable-background:new 0 0 512 512;" xml:space="preserve">
<style type="text/css">
	.st0{clip-path:url(#SVGID_2_);fill:#3098BB;}
</style>
<g>
	<defs>
		<rect id="SVGID_1_" x="100.1" y="114.2" width="311.8" height="283.6"/>
	</defs>
	<clipPath id="SVGID_2_">
		<use xlink:href="#SVGID_1_"  style="overflow:visible;"/>
	</clipPath>
	<path class="st0" d="M310.3,151.7l60,54.9c3.9,3.6,10.1,3.6,14.1,0.2l24.3-21.1c4.2-3.6,4.3-9.7,0.2-13.5l-60.3-55.2
		c-3.9-3.6-10.3-3.6-14.2-0.1l-23.9,21.4C306.3,142,306.3,148,310.3,151.7"/>
	<path class="st0" d="M284,227.4L162.6,338.9c-2.4,2.2-6.4,2.2-8.8,0c-2.5-2.2-2.5-5.9-0.1-8.2l119.9-112.9c2.5-2.3,6.5-2.3,9,0
		l1.5,1.4C286.4,221.6,286.4,225.2,284,227.4 M351.6,221.6L292,167.1c-4.1-3.7-10.6-3.7-14.7,0L116.9,314c-1.5,1.4-2.5,3.1-2.9,5
		l-13.7,67.3c-1.3,6.5,4.8,12.3,11.9,11.3l74.4-11c2.2-0.3,4.2-1.3,5.8-2.7l159.2-148.7C355.7,231.4,355.6,225.3,351.6,221.6"/>
</g>
</svg>
