<?xml version="1.0" encoding="utf-8"?>
<!-- Generator: Adobe Illustrator 19.2.1, SVG Export Plug-In . SVG Version: 6.00 Build 0)  -->
<svg version="1.1" id="Layer_1" xmlns="http://www.w3.org/2000/svg" xmlns:xlink="http://www.w3.org/1999/xlink" x="0px" y="0px"
	 viewBox="0 0 512 512" style="enable-background:new 0 0 512 512;" xml:space="preserve">
<style type="text/css">
	.st0{clip-path:url(#SVGID_2_);fill:#3098BB;}
</style>
<g>
	<defs>
		<rect id="SVGID_1_" x="124.7" y="100.3" width="262.5" height="311.7"/>
	</defs>
	<clipPath id="SVGID_2_">
		<use xlink:href="#SVGID_1_"  style="overflow:visible;"/>
	</clipPath>
	<path class="st0" d="M377.6,100.3H224.8c-4.8,0-9.5,2-12.9,5.4l-49,50.1c-3.4,3.5-5.3,8.2-5.3,13.2v46.6h-20
		c-0.7,0-1.5,0.1-2.2,0.3c-2.8,0.8-3.6,4.5-1.4,6.5l84.7,74.6c1.9,1.7,4.8,1.7,6.8,0l86-74c1.8-1.6,1.8-4.5-0.1-5.9
		c-1.3-1-3-1.6-4.8-1.6H174v-28.1c0-5.5,4.3-9.9,9.6-9.9h40.6c5.3,0,9.7-4.4,9.7-9.9v-40.8c0-5.5,4.3-9.9,9.6-9.9h117.7
		c5.3,0,9.6,4.4,9.6,9.9v258.5c0,5.5-4.3,9.9-9.6,9.9H183.6c-5.3,0-9.6-4.4-9.6-9.9v-26.1h133c1.3,0,2-1.6,1-2.6l-53.2-53.8
		c-1.3-1.3-3.2-1.3-4.6-0.2l-25.9,22.1c-1.3,1.1-3.2,1.1-4.4-0.1l-26.2-23.5c-1.4-1.2-3.4-1.2-4.7,0.2l-52.1,55.3
		c-0.9,1-0.3,2.6,1.1,2.6h19.7v42.8c0,5.5,4.3,9.9,9.6,9.9h210.3c5.3,0,9.6-4.4,9.6-9.9v-292C387.2,104.7,382.9,100.3,377.6,100.3"
		/>
	<path class="st0" d="M320.5,336.1v-89.7c0-2.1-2.4-3.3-4-1.9L269.3,286c-1.1,0.9-1.1,2.6-0.1,3.6l47.1,48.2
		C317.9,339.4,320.5,338.3,320.5,336.1"/>
	<path class="st0" d="M175.5,283.2l-46.9-39.9c-1.6-1.3-3.9-0.2-3.9,1.9v88.3c0,2.2,2.6,3.3,4.1,1.7l46.9-48.4
		C176.7,285.8,176.6,284.1,175.5,283.2"/>
</g>
</svg>
