<?xml version="1.0" encoding="utf-8"?>
<!-- Generator: Adobe Illustrator 19.2.1, SVG Export Plug-In . SVG Version: 6.00 Build 0)  -->
<svg version="1.1" id="Layer_1" xmlns="http://www.w3.org/2000/svg" xmlns:xlink="http://www.w3.org/1999/xlink" x="0px" y="0px"
	 viewBox="0 0 512 512" style="enable-background:new 0 0 512 512;" xml:space="preserve">
<style type="text/css">
	.st0{clip-path:url(#SVGID_2_);fill:#3299BB;}
</style>
<g>
	<defs>
		<rect id="SVGID_1_" x="100" y="143.6" width="312" height="246.3"/>
	</defs>
	<clipPath id="SVGID_2_">
		<use xlink:href="#SVGID_1_"  style="overflow:visible;"/>
	</clipPath>
	<path class="st0" d="M147.8,151.2c10.8-5.8,45.8-19.3,96.7,14.6c1.9,1.2,3,3.5,3,6v174.1c0,2.4-2.2,4-4.1,3
		c-11.4-5.8-45.8-19.7-95.6-6.8c-1.8,0.5-3.6-1.1-3.6-3.2V157.5C144.3,154.8,145.6,152.4,147.8,151.2"/>
	<path class="st0" d="M365.5,151.2c-10.8-5.8-45.8-19.3-96.7,14.6c-1.9,1.2-3,3.5-3,6v174.1c0,2.4,2.2,4,4.1,3
		c11.4-5.8,45.8-19.7,95.6-6.8c1.8,0.5,3.6-1.1,3.6-3.2V157.5C369,154.8,367.7,152.4,365.5,151.2"/>
	<path class="st0" d="M242.8,366.9H125.3c-2,0-3.6-1.8-3.6-4v-195h-15.3c-3.6,0-6.4,3.2-6.4,7.2v207.6c0,4,2.9,7.2,6.4,7.2h136.4
		c2.6,0,4.7-2.4,4.7-5.3v-12.3C247.5,369.3,245.4,366.9,242.8,366.9"/>
	<path class="st0" d="M405.6,167.8h-14.4v195c0,2.2-1.6,4-3.6,4H270.5c-2.6,0-4.7,2.4-4.7,5.3v12.3c0,2.9,2.1,5.3,4.7,5.3h135.1
		c3.6,0,6.4-3.2,6.4-7.2V175.1C412,171.1,409.1,167.8,405.6,167.8"/>
</g>
</svg>
